<mxfile host="65bd71144e">
    <diagram id="l27_RHs7Inlry4CoIQ_y" name="Page-1">
        <mxGraphModel dx="437" dy="311" grid="1" gridSize="10" guides="1" tooltips="1" connect="1" arrows="1" fold="1" page="1" pageScale="1" pageWidth="850" pageHeight="1100" math="0" shadow="0">
            <root>
                <mxCell id="0"/>
                <mxCell id="1" parent="0"/>
                <mxCell id="187" value="" style="group" vertex="1" connectable="0" parent="1">
                    <mxGeometry x="180" y="600" width="440" height="240" as="geometry"/>
                </mxCell>
                <mxCell id="162" value="" style="whiteSpace=wrap;html=1;rounded=0;glass=0;sketch=0;strokeColor=#000000;fontSize=9;fontColor=#000000;fillColor=#FFFFFF;" parent="187" vertex="1">
                    <mxGeometry width="439.99999999999994" height="240" as="geometry"/>
                </mxCell>
                <mxCell id="99" value="&lt;font style=&quot;font-size: 9px;&quot; color=&quot;#000000&quot;&gt;Pulses to velocity conversion&lt;/font&gt;" style="text;strokeColor=#000000;align=center;fillColor=#FFFFFF;html=1;verticalAlign=middle;whiteSpace=wrap;rounded=0;glass=0;" parent="187" vertex="1">
                    <mxGeometry x="42.082857142857144" y="96.41" width="59.02285714285714" height="40.4" as="geometry"/>
                </mxCell>
                <mxCell id="100" value="&lt;font style=&quot;font-size: 9px;&quot; color=&quot;#000000&quot;&gt;Encoders reader task&lt;/font&gt;" style="text;strokeColor=#000000;align=center;fillColor=#FFFFFF;html=1;verticalAlign=middle;whiteSpace=wrap;rounded=0;glass=0;" parent="187" vertex="1">
                    <mxGeometry x="42.082857142857144" y="180.0000000000001" width="59.02285714285714" height="30" as="geometry"/>
                </mxCell>
                <mxCell id="95" value="&lt;font size=&quot;1&quot; color=&quot;#000000&quot;&gt;Motion controller&lt;/font&gt;" style="text;strokeColor=#000000;align=center;fillColor=#FFFFFF;html=1;verticalAlign=middle;whiteSpace=wrap;rounded=0;glass=0;" parent="187" vertex="1">
                    <mxGeometry x="190.4842857142857" y="29" width="59.02285714285714" height="30" as="geometry"/>
                </mxCell>
                <mxCell id="97" value="&lt;font style=&quot;font-size: 9px;&quot; color=&quot;#000000&quot;&gt;Motor target&lt;br&gt;velocities&lt;br&gt;generator&lt;br&gt;&lt;/font&gt;" style="text;strokeColor=#000000;align=center;fillColor=#FFFFFF;html=1;verticalAlign=middle;whiteSpace=wrap;rounded=0;glass=0;" parent="187" vertex="1">
                    <mxGeometry x="353.72857142857146" y="19" width="59.02285714285714" height="50" as="geometry"/>
                </mxCell>
                <mxCell id="98" value="&lt;font size=&quot;1&quot; color=&quot;#000000&quot;&gt;Motor controller&lt;/font&gt;" style="text;strokeColor=#000000;align=center;fillColor=#FFFFFF;html=1;verticalAlign=middle;whiteSpace=wrap;rounded=0;glass=0;" parent="187" vertex="1">
                    <mxGeometry x="347.62095238095236" y="98" width="71.23809523809524" height="38.81" as="geometry"/>
                </mxCell>
                <mxCell id="126" value="&lt;font style=&quot;font-size: 9px;&quot; color=&quot;#000000&quot;&gt;Driver controller&lt;/font&gt;" style="text;strokeColor=#000000;align=center;fillColor=#FFFFFF;html=1;verticalAlign=middle;whiteSpace=wrap;rounded=0;glass=0;" parent="187" vertex="1">
                    <mxGeometry x="353.72857142857146" y="173.81000000000006" width="59.02285714285714" height="30" as="geometry"/>
                </mxCell>
                <mxCell id="116" style="edgeStyle=none;html=1;strokeColor=#000000;strokeWidth=3;fontSize=9;fontColor=#000000;startArrow=none;startFill=0;endArrow=classic;endFill=1;" parent="187" source="100" target="99" edge="1">
                    <mxGeometry relative="1" as="geometry"/>
                </mxCell>
                <mxCell id="119" style="edgeStyle=none;html=1;strokeColor=#000000;strokeWidth=3;fontSize=9;fontColor=#000000;startArrow=none;startFill=0;endArrow=classic;endFill=1;" parent="187" source="99" target="98" edge="1">
                    <mxGeometry relative="1" as="geometry"/>
                </mxCell>
                <mxCell id="115" style="edgeStyle=none;html=1;strokeColor=#000000;strokeWidth=3;fontSize=9;fontColor=#000000;startArrow=none;startFill=0;endArrow=classic;endFill=1;" parent="187" source="97" target="98" edge="1">
                    <mxGeometry relative="1" as="geometry"/>
                </mxCell>
                <mxCell id="129" style="edgeStyle=none;html=1;strokeColor=#000000;strokeWidth=3;fontSize=9;fontColor=#000000;startArrow=none;startFill=0;endArrow=classic;endFill=1;exitX=0.5;exitY=1;exitDx=0;exitDy=0;entryX=0.5;entryY=0;entryDx=0;entryDy=0;" parent="187" source="98" target="126" edge="1">
                    <mxGeometry relative="1" as="geometry">
                        <mxPoint x="388.6561904761905" y="377.00423379520885" as="sourcePoint"/>
                        <mxPoint x="591.1714285714286" y="387.60117504305595" as="targetPoint"/>
                    </mxGeometry>
                </mxCell>
                <mxCell id="114" style="edgeStyle=none;html=1;strokeColor=#000000;strokeWidth=3;fontSize=9;fontColor=#000000;startArrow=none;startFill=0;endArrow=classic;endFill=1;" parent="187" source="95" target="97" edge="1">
                    <mxGeometry relative="1" as="geometry"/>
                </mxCell>
                <mxCell id="163" value="&lt;b&gt;Raspberry Pico&lt;/b&gt;" style="text;strokeColor=none;align=center;fillColor=none;html=1;verticalAlign=middle;whiteSpace=wrap;rounded=0;glass=0;sketch=0;fontSize=9;fontColor=#000000;" parent="187" vertex="1">
                    <mxGeometry x="20.952380952380953" y="10.48" width="73.33333333333333" height="8.52" as="geometry"/>
                </mxCell>
                <mxCell id="174" value="" style="whiteSpace=wrap;html=1;rounded=0;glass=0;sketch=0;strokeColor=#000000;fontSize=9;fontColor=#000000;fillColor=#FFFFFF;container=1;" parent="1" vertex="1">
                    <mxGeometry x="260" y="240" width="280" height="299.98" as="geometry">
                        <mxRectangle x="170" y="290" width="50" height="40" as="alternateBounds"/>
                    </mxGeometry>
                </mxCell>
                <mxCell id="169" value="&lt;font style=&quot;font-size: 9px;&quot; color=&quot;#000000&quot;&gt;Image process&lt;br&gt;&lt;/font&gt;" style="text;strokeColor=#000000;align=center;fillColor=#FFFFFF;html=1;verticalAlign=middle;whiteSpace=wrap;rounded=0;glass=0;" parent="174" vertex="1">
                    <mxGeometry x="105.70608695652194" y="19.25999999999994" width="68.58782608695653" height="50" as="geometry"/>
                </mxCell>
                <mxCell id="177" value="&lt;font style=&quot;font-size: 9px;&quot; color=&quot;#000000&quot;&gt;Detect line&lt;br&gt;&lt;/font&gt;" style="text;strokeColor=#000000;align=center;fillColor=#FFFFFF;html=1;verticalAlign=middle;whiteSpace=wrap;rounded=0;glass=0;" parent="174" vertex="1">
                    <mxGeometry x="105.70608695652194" y="100" width="68.58782608695653" height="50" as="geometry"/>
                </mxCell>
                <mxCell id="183" style="edgeStyle=none;html=1;strokeColor=#000000;strokeWidth=3;fontSize=9;fontColor=#000000;startArrow=classic;startFill=1;endArrow=none;endFill=0;" edge="1" parent="174" source="177" target="169">
                    <mxGeometry relative="1" as="geometry">
                        <mxPoint x="124.50260869565216" y="159.9999999999999" as="sourcePoint"/>
                        <mxPoint x="124.50260869565216" y="129.9999999999999" as="targetPoint"/>
                    </mxGeometry>
                </mxCell>
                <mxCell id="122" value="&lt;font style=&quot;font-size: 9px;&quot; color=&quot;#000000&quot;&gt;Generate motion command&lt;br&gt;&lt;/font&gt;" style="text;strokeColor=#000000;align=center;fillColor=#FFFFFF;html=1;verticalAlign=middle;whiteSpace=wrap;rounded=0;glass=0;" parent="174" vertex="1">
                    <mxGeometry x="105.70869565217419" y="169.9999999999999" width="68.58782608695653" height="50" as="geometry"/>
                </mxCell>
                <mxCell id="189" style="edgeStyle=none;html=1;strokeColor=#000000;strokeWidth=3;fontSize=9;fontColor=#000000;startArrow=classic;startFill=1;endArrow=none;endFill=0;" edge="1" parent="174" source="122" target="177">
                    <mxGeometry relative="1" as="geometry">
                        <Array as="points"/>
                        <mxPoint x="32.06608695652178" y="197.06313416009027" as="sourcePoint"/>
                        <mxPoint x="60.66260869565209" y="177.93686583990996" as="targetPoint"/>
                    </mxGeometry>
                </mxCell>
                <mxCell id="120" value="&lt;font style=&quot;font-size: 9px;&quot; color=&quot;#000000&quot;&gt;Send information via serial&lt;br&gt;&lt;/font&gt;" style="text;strokeColor=#000000;align=center;fillColor=#FFFFFF;html=1;verticalAlign=middle;whiteSpace=wrap;rounded=0;glass=0;" parent="174" vertex="1">
                    <mxGeometry x="105.70608695652194" y="239.9999999999999" width="68.58782608695653" height="50" as="geometry"/>
                </mxCell>
                <mxCell id="124" style="edgeStyle=none;html=1;strokeColor=#000000;strokeWidth=3;fontSize=9;fontColor=#000000;startArrow=classic;startFill=1;endArrow=none;endFill=0;" parent="174" source="120" target="122" edge="1">
                    <mxGeometry relative="1" as="geometry"/>
                </mxCell>
                <mxCell id="176" value="&lt;b&gt;Raspberry Pi&lt;/b&gt;" style="text;strokeColor=none;align=center;fillColor=none;html=1;verticalAlign=middle;whiteSpace=wrap;rounded=0;glass=0;sketch=0;fontSize=9;fontColor=#000000;" parent="174" vertex="1">
                    <mxGeometry x="11.589565217391316" y="19.25999999999999" width="81.34608695652173" height="8.52" as="geometry"/>
                </mxCell>
                <mxCell id="147" value="" style="group" parent="1" vertex="1" connectable="0">
                    <mxGeometry x="60" y="920" width="160" height="80" as="geometry"/>
                </mxCell>
                <mxCell id="146" value="" style="whiteSpace=wrap;html=1;rounded=0;glass=0;sketch=0;strokeColor=#000000;fontSize=9;fontColor=#000000;fillColor=#FFFFFF;" parent="147" vertex="1">
                    <mxGeometry width="160" height="80" as="geometry"/>
                </mxCell>
                <mxCell id="107" value="&lt;b&gt;Left motor&lt;/b&gt;" style="text;strokeColor=none;align=center;fillColor=none;html=1;verticalAlign=middle;whiteSpace=wrap;rounded=0;glass=0;sketch=0;fontSize=9;fontColor=#000000;" parent="147" vertex="1">
                    <mxGeometry x="47.87967948717949" y="10" width="64.23076923076923" height="7.57" as="geometry"/>
                </mxCell>
                <mxCell id="102" value="&lt;font size=&quot;1&quot; color=&quot;#000000&quot;&gt;Left motor encoders signal&lt;/font&gt;" style="text;strokeColor=#000000;align=center;fillColor=#FFFFFF;html=1;verticalAlign=middle;whiteSpace=wrap;rounded=0;glass=0;" parent="147" vertex="1">
                    <mxGeometry x="10.000000000000014" y="30.00999999999999" width="60.31" height="39.99" as="geometry"/>
                </mxCell>
                <mxCell id="93" value="&lt;font style=&quot;font-size: 9px;&quot; color=&quot;#000000&quot;&gt;Left motor input voltage&lt;/font&gt;" style="text;strokeColor=#000000;align=center;fillColor=#FFFFFF;html=1;verticalAlign=middle;whiteSpace=wrap;rounded=0;glass=0;" parent="147" vertex="1">
                    <mxGeometry x="90.28999999999999" y="30.00999999999999" width="60.31" height="40" as="geometry"/>
                </mxCell>
                <mxCell id="121" style="edgeStyle=none;html=1;strokeColor=#000000;strokeWidth=3;fontSize=9;fontColor=#000000;startArrow=classic;startFill=1;endArrow=none;endFill=0;" parent="1" source="170" target="168" edge="1">
                    <mxGeometry relative="1" as="geometry">
                        <Array as="points"/>
                        <mxPoint x="339.83000000000004" y="159.98" as="sourcePoint"/>
                        <mxPoint x="309.83000000000004" y="89.50866390170162" as="targetPoint"/>
                    </mxGeometry>
                </mxCell>
                <mxCell id="130" value="" style="whiteSpace=wrap;html=1;rounded=0;glass=0;sketch=0;strokeColor=#000000;fontSize=9;fontColor=#000000;fillColor=#FFFFFF;container=1;" parent="1" vertex="1">
                    <mxGeometry x="300" y="880" width="201.83" height="120" as="geometry"/>
                </mxCell>
                <mxCell id="133" value="&lt;b&gt;Motor driver&lt;/b&gt;" style="text;strokeColor=none;align=center;fillColor=none;html=1;verticalAlign=middle;whiteSpace=wrap;rounded=0;glass=0;sketch=0;fontSize=9;fontColor=#000000;" parent="130" vertex="1">
                    <mxGeometry x="11.738401548411455" y="15" width="57.167540008497376" height="10" as="geometry"/>
                </mxCell>
                <mxCell id="83" value="&lt;font style=&quot;font-size: 9px;&quot; color=&quot;#000000&quot;&gt;Driver right motor control&lt;/font&gt;" style="text;strokeColor=#000000;align=center;fillColor=#FFFFFF;html=1;verticalAlign=middle;whiteSpace=wrap;rounded=0;glass=0;" parent="130" vertex="1">
                    <mxGeometry x="117.59362979747907" y="44.99999999999977" width="57.167540008497376" height="30" as="geometry"/>
                </mxCell>
                <mxCell id="193" value="" style="edgeStyle=none;html=1;" edge="1" parent="130" source="133" target="83">
                    <mxGeometry relative="1" as="geometry"/>
                </mxCell>
                <mxCell id="81" value="&lt;font style=&quot;font-size: 9px;&quot; color=&quot;#000000&quot;&gt;Driver left motor control&lt;/font&gt;" style="text;strokeColor=#000000;align=center;fillColor=#FFFFFF;html=1;verticalAlign=middle;whiteSpace=wrap;rounded=0;glass=0;" parent="130" vertex="1">
                    <mxGeometry x="23.81980833687391" y="44.089999999999804" width="57.167540008497376" height="31.82" as="geometry"/>
                </mxCell>
                <mxCell id="148" value="" style="group" parent="1" vertex="1" connectable="0">
                    <mxGeometry x="580" y="920" width="160" height="80" as="geometry"/>
                </mxCell>
                <mxCell id="149" value="" style="whiteSpace=wrap;html=1;rounded=0;glass=0;sketch=0;strokeColor=#000000;fontSize=9;fontColor=#000000;fillColor=#FFFFFF;" parent="148" vertex="1">
                    <mxGeometry width="160" height="80" as="geometry"/>
                </mxCell>
                <mxCell id="150" value="&lt;b&gt;Right motor&lt;/b&gt;" style="text;strokeColor=none;align=center;fillColor=none;html=1;verticalAlign=middle;whiteSpace=wrap;rounded=0;glass=0;sketch=0;fontSize=9;fontColor=#000000;" parent="148" vertex="1">
                    <mxGeometry x="47.87967948717949" y="10" width="64.23076923076923" height="7.57" as="geometry"/>
                </mxCell>
                <mxCell id="151" value="&lt;font style=&quot;font-size: 9px;&quot; color=&quot;#000000&quot;&gt;Right motor input voltage&lt;/font&gt;" style="text;strokeColor=#000000;align=center;fillColor=#FFFFFF;html=1;verticalAlign=middle;whiteSpace=wrap;rounded=0;glass=0;" parent="148" vertex="1">
                    <mxGeometry x="7.009999999999991" y="30" width="60.31" height="40" as="geometry"/>
                </mxCell>
                <mxCell id="152" value="&lt;font size=&quot;1&quot; color=&quot;#000000&quot;&gt;Right motor encoders signal&lt;/font&gt;" style="text;strokeColor=#000000;align=center;fillColor=#FFFFFF;html=1;verticalAlign=middle;whiteSpace=wrap;rounded=0;glass=0;" parent="148" vertex="1">
                    <mxGeometry x="90.29000000000002" y="30.00999999999999" width="60.31" height="39.99" as="geometry"/>
                </mxCell>
                <mxCell id="153" style="edgeStyle=orthogonalEdgeStyle;html=1;fontSize=9;fontColor=#000000;startArrow=none;startFill=0;endArrow=classic;endFill=1;strokeColor=#000000;strokeWidth=3;" parent="1" source="83" target="151" edge="1">
                    <mxGeometry relative="1" as="geometry">
                        <Array as="points">
                            <mxPoint x="446" y="970"/>
                        </Array>
                        <mxPoint x="355" y="1024.1" as="sourcePoint"/>
                        <mxPoint x="432.01" y="990" as="targetPoint"/>
                    </mxGeometry>
                </mxCell>
                <mxCell id="154" style="edgeStyle=orthogonalEdgeStyle;html=1;fontSize=9;fontColor=#000000;startArrow=none;startFill=0;endArrow=classic;endFill=1;strokeColor=#000000;strokeWidth=3;" parent="1" source="81" target="93" edge="1">
                    <mxGeometry relative="1" as="geometry">
                        <Array as="points">
                            <mxPoint x="352" y="980"/>
                        </Array>
                        <mxPoint x="355" y="1010" as="sourcePoint"/>
                        <mxPoint x="432.01" y="1053.8" as="targetPoint"/>
                    </mxGeometry>
                </mxCell>
                <mxCell id="156" style="edgeStyle=orthogonalEdgeStyle;html=1;fontSize=9;fontColor=#000000;startArrow=none;startFill=0;endArrow=classic;endFill=1;strokeColor=#000000;strokeWidth=3;" parent="1" source="102" target="100" edge="1">
                    <mxGeometry relative="1" as="geometry">
                        <Array as="points">
                            <mxPoint x="110" y="880"/>
                            <mxPoint x="252" y="880"/>
                        </Array>
                        <mxPoint x="569.65" y="1130" as="sourcePoint"/>
                        <mxPoint x="646.66" y="1100" as="targetPoint"/>
                    </mxGeometry>
                </mxCell>
                <mxCell id="168" value="&lt;font style=&quot;font-size: 9px;&quot; color=&quot;#000000&quot;&gt;&lt;b&gt;LIne&lt;/b&gt;&lt;br&gt;&lt;/font&gt;" style="text;strokeColor=#000000;align=center;fillColor=#FFFFFF;html=1;verticalAlign=middle;whiteSpace=wrap;rounded=0;glass=0;" parent="1" vertex="1">
                    <mxGeometry x="380" y="40" width="40" height="40" as="geometry"/>
                </mxCell>
                <mxCell id="170" value="&lt;p style=&quot;line-height: 100%;&quot;&gt;&lt;b&gt;Camera&lt;/b&gt;&lt;/p&gt;" style="whiteSpace=wrap;html=1;rounded=0;glass=0;sketch=0;strokeColor=#000000;fontSize=9;fontColor=#000000;fillColor=#FFFFFF;container=1;align=center;verticalAlign=top;" parent="1" vertex="1">
                    <mxGeometry x="341.34000000000003" y="120" width="118.66" height="80" as="geometry">
                        <mxRectangle x="109.99999999999999" y="139.98" width="50" height="40" as="alternateBounds"/>
                    </mxGeometry>
                </mxCell>
                <mxCell id="171" value="&lt;font style=&quot;font-size: 9px;&quot; color=&quot;#000000&quot;&gt;Capture frame&lt;br&gt;&lt;/font&gt;" style="text;strokeColor=#000000;align=center;fillColor=#FFFFFF;html=1;verticalAlign=middle;whiteSpace=wrap;rounded=0;glass=0;" parent="170" vertex="1">
                    <mxGeometry x="40.658713846153844" y="40" width="37.350516923076924" height="27.59" as="geometry"/>
                </mxCell>
                <mxCell id="157" style="edgeStyle=orthogonalEdgeStyle;html=1;fontSize=9;fontColor=#000000;startArrow=none;startFill=0;endArrow=classic;endFill=1;strokeColor=#000000;strokeWidth=3;" parent="1" source="152" target="100" edge="1">
                    <mxGeometry relative="1" as="geometry">
                        <Array as="points">
                            <mxPoint x="700" y="820"/>
                            <mxPoint x="320" y="820"/>
                            <mxPoint x="320" y="795"/>
                        </Array>
                        <mxPoint x="588.94" y="1226" as="sourcePoint"/>
                        <mxPoint x="266.34000000000003" y="1070" as="targetPoint"/>
                    </mxGeometry>
                </mxCell>
                <mxCell id="160" value="" style="edgeStyle=orthogonalEdgeStyle;orthogonalLoop=1;jettySize=auto;html=1;endArrow=none;endFill=0;jumpSize=12;strokeWidth=3;endSize=6;startArrow=classic;startFill=1;strokeColor=#000000;" parent="1" source="130" target="126" edge="1">
                    <mxGeometry width="80" relative="1" as="geometry">
                        <mxPoint x="66.90129999999999" y="898.29" as="sourcePoint"/>
                        <mxPoint x="548" y="967.52" as="targetPoint"/>
                        <Array as="points">
                            <mxPoint x="401" y="860"/>
                            <mxPoint x="564" y="860"/>
                        </Array>
                    </mxGeometry>
                </mxCell>
                <mxCell id="125" style="edgeStyle=none;html=1;strokeColor=#000000;strokeWidth=3;fontSize=9;fontColor=#000000;startArrow=classic;startFill=1;endArrow=none;endFill=0;" parent="1" source="95" target="120" edge="1">
                    <mxGeometry relative="1" as="geometry">
                        <Array as="points"/>
                    </mxGeometry>
                </mxCell>
                <mxCell id="195" style="edgeStyle=none;html=1;strokeColor=#000000;strokeWidth=3;fontSize=9;fontColor=#000000;startArrow=classic;startFill=1;endArrow=none;endFill=0;" edge="1" parent="1" source="174" target="170">
                    <mxGeometry relative="1" as="geometry">
                        <mxPoint x="400.67000000000024" y="250.74" as="sourcePoint"/>
                        <mxPoint x="400.67000000000024" y="220" as="targetPoint"/>
                    </mxGeometry>
                </mxCell>
            </root>
        </mxGraphModel>
    </diagram>
</mxfile>